<?xml version="1.0" encoding="utf-8"?>
<!-- Generator: Adobe Illustrator 16.0.0, SVG Export Plug-In . SVG Version: 6.00 Build 0)  -->
<!DOCTYPE svg PUBLIC "-//W3C//DTD SVG 1.1//EN" "http://www.w3.org/Graphics/SVG/1.1/DTD/svg11.dtd">
<svg version="1.1" id="Layer_1" xmlns="http://www.w3.org/2000/svg" xmlns:xlink="http://www.w3.org/1999/xlink" x="0px" y="0px"
	 width="213.5px" height="216.5px" viewBox="0 0 213.5 216.5" enable-background="new 0 0 213.5 216.5" xml:space="preserve">
<g id="Page-1_1_">
	<g id="_x30_04---Radar_1_">
		<path id="Rectangle-path_3_" fill="#E8EDFC" d="M31.421,12.588h151.817c10.94,0,19.802,8.862,19.802,19.799v151.821
			c0,10.94-8.862,19.808-19.802,19.808H31.421c-10.937,0-19.805-8.868-19.805-19.808V32.387
			C11.616,21.45,20.484,12.588,31.421,12.588z"/>
		<path id="Shape_17_" fill="#CAD9FC" d="M183.238,12.588h-9.897c10.934,0,19.802,8.862,19.802,19.799v151.821
			c0,10.94-8.868,19.808-19.802,19.808h9.897c10.94,0,19.802-8.868,19.802-19.808V32.387
			C203.041,21.45,194.179,12.588,183.238,12.588z"/>
		<path id="Oval_11_" fill="#BDD6F9" d="M107.329,25.791c45.572,0,82.512,36.937,82.512,82.51c0,45.569-36.94,82.509-82.512,82.509
			c-45.568,0-82.509-36.94-82.509-82.509C24.82,62.728,61.761,25.791,107.329,25.791z"/>
		<path id="Shape_16_" fill="#E8EDFC" d="M160.138,108.301c0,11.753-3.926,23.173-11.157,32.442
			c-1.522-2.132-4.162-3.162-6.724-2.622c-2.567,0.538-4.567,2.538-5.104,5.104c-0.541,2.564,0.489,5.205,2.622,6.724
			c-21.007,16.392-50.937,14.552-69.778-4.283c-18.846-18.836-20.696-48.761-4.318-69.776c1.551,2.064,4.164,3.035,6.688,2.49
			c2.522-0.552,4.494-2.521,5.042-5.049c0.551-2.521-0.423-5.136-2.49-6.685c15.91-12.404,37.497-14.65,55.62-5.796
			C148.664,69.714,160.15,88.126,160.138,108.301z"/>
		<path id="Oval_10_" fill="#A4C2F7" d="M107.329,75.295c18.225,0,33.007,14.776,33.007,33.006
			c0,18.223-14.782,32.999-33.007,32.999c-18.229,0-33.003-14.776-33.003-32.999C74.326,90.071,89.101,75.295,107.329,75.295z"/>
		<path id="Shape_15_" fill="#E8EDFC" d="M77.628,71.997c-0.015,3.029-2.107,5.663-5.061,6.358c-2.954,0.696-5.999-0.72-7.368-3.43
			c-1.37-2.704-0.708-5.996,1.602-7.965s5.667-2.095,8.118-0.313C76.625,67.896,77.628,69.883,77.628,71.997z"/>
		<path id="Shape_14_" fill="#E8EDFC" d="M150.237,144.604c-0.012,3.64-2.96,6.591-6.603,6.6c-1.39,0.006-2.743-0.432-3.86-1.253
			c-2.132-1.519-3.162-4.159-2.622-6.724c0.538-2.567,2.537-4.567,5.104-5.104c2.562-0.541,5.201,0.49,6.724,2.622
			C149.802,141.867,150.24,143.214,150.237,144.604z"/>
		<path id="Shape_13_" fill="#FFFFFF" d="M31.421,204.016h9.903c-10.937,0-19.805-8.868-19.805-19.808V32.387
			c0-10.937,8.868-19.799,19.805-19.799h-9.903c-10.937,0-19.805,8.862-19.805,19.799v151.821
			C11.616,195.147,20.484,204.016,31.421,204.016z"/>
		<path id="Rectangle-path_2_" fill="#FFFFFF" d="M8.318,157.809h6.601v26.399H8.318V157.809z"/>
		<g>
			<path id="Oval_9_" fill="#428DFF" d="M28.12,25.791c1.825,0,3.301,1.48,3.301,3.298c0,1.824-1.477,3.298-3.301,3.298
				c-1.823,0-3.3-1.474-3.3-3.298C24.82,27.271,26.297,25.791,28.12,25.791z"/>
			<path id="Oval_8_" fill="#428DFF" d="M186.543,25.791c1.818,0,3.298,1.48,3.298,3.298c0,1.824-1.48,3.298-3.298,3.298
				c-1.824,0-3.305-1.474-3.305-3.298C183.238,27.271,184.719,25.791,186.543,25.791z"/>
			<path id="Oval_7_" fill="#428DFF" d="M28.12,184.208c1.825,0,3.301,1.48,3.301,3.298c0,1.824-1.477,3.304-3.301,3.304
				c-1.823,0-3.3-1.48-3.3-3.304C24.82,185.688,26.297,184.208,28.12,184.208z"/>
			<path id="Oval_6_" fill="#428DFF" d="M186.543,184.208c1.818,0,3.298,1.48,3.298,3.298c0,1.824-1.48,3.304-3.298,3.304
				c-1.824,0-3.305-1.48-3.305-3.304C183.238,185.688,184.719,184.208,186.543,184.208z"/>
			<path id="Shape_12_" fill="#428DFF" d="M11.686,174.307c-1.826,0.012-3.309-1.462-3.318-3.286
				c-0.009-1.818,1.462-3.305,3.283-3.311h0.035c1.821,0,3.298,1.474,3.298,3.298C14.984,172.833,13.507,174.307,11.686,174.307z"/>
			<path id="Shape_11_" fill="#428DFF" d="M31.421,207.313h151.817c12.752-0.012,23.088-10.348,23.106-23.106V32.387
				c-0.018-12.749-10.354-23.085-23.106-23.103H31.421C18.669,9.302,8.333,19.638,8.318,32.387v125.422
				c0,1.825,1.477,3.299,3.298,3.299c1.826,0,3.303-1.474,3.303-3.299V32.387c0.009-9.106,7.393-16.486,16.502-16.5h151.817
				c9.11,0.014,16.492,7.394,16.504,16.5v151.821c-0.012,9.116-7.394,16.495-16.504,16.5H31.421
				c-9.109-0.006-16.493-7.385-16.502-16.5c0-1.825-1.477-3.298-3.303-3.298c-1.821,0-3.298,1.474-3.298,3.298
				C8.333,196.966,18.669,207.302,31.421,207.313z"/>
			<path id="Shape_10_" fill="#428DFF" d="M107.329,194.111c47.391,0,85.813-38.417,85.813-85.811
				c0-47.392-38.423-85.81-85.813-85.81c-47.392,0-85.811,38.418-85.811,85.81C21.576,155.67,59.961,194.054,107.329,194.111z
				 M107.329,29.089c43.748,0,79.214,35.463,79.214,79.212c0,43.742-35.466,79.205-79.214,79.205
				c-43.745,0-79.209-35.463-79.209-79.205C28.173,64.571,63.605,29.139,107.329,29.089z"/>
			<path id="Shape_9_" fill="#428DFF" d="M104.031,164.236v0.169c0,1.825,1.477,3.305,3.298,3.305c1.824,0,3.301-1.48,3.301-3.305
				v-0.139c10.596-0.646,20.79-4.271,29.416-10.457c3.655,1.45,7.826,0.592,10.608-2.192c2.779-2.779,3.643-6.947,2.187-10.605
				c6.183-8.624,9.811-18.82,10.46-29.413h0.136c1.824,0,3.298-1.471,3.298-3.299c0-1.826-1.474-3.306-3.298-3.306h-0.169
				c-0.768-13.332-6.289-25.95-15.567-35.564l1.652-1.798c1.214-1.343,1.12-3.413-0.208-4.643c-1.335-1.228-3.404-1.154-4.646,0.163
				l-1.634,1.776c-9.14-7.501-20.427-11.904-32.234-12.568v-0.169c0-1.824-1.477-3.298-3.301-3.298
				c-1.821,0-3.298,1.474-3.298,3.298v0.137c-10.599,0.597-20.802,4.233-29.393,10.468c-3.661-1.462-7.84-0.603-10.627,2.182
				c-2.788,2.785-3.647,6.966-2.183,10.63c-6.234,8.59-9.868,18.789-10.47,29.386h-0.134c-1.821,0-3.298,1.48-3.298,3.306
				c0,1.828,1.477,3.299,3.298,3.299h0.169C53.085,139.94,75.69,162.542,104.031,164.236L104.031,164.236z M57.993,111.6h13.201
				c1.611,17.421,15.412,31.225,32.836,32.835v13.202C79.334,155.96,59.67,136.297,57.993,111.6z M110.63,111.6h26.208
				c-1.559,13.776-12.432,24.646-26.208,26.208V111.6z M114.868,104.995l14.878-16.117c3.951,4.528,6.424,10.155,7.092,16.117
				H114.868z M110.63,99.854V78.788c5.168,0.583,10.088,2.521,14.266,5.614L110.63,99.854z M104.031,104.995H77.822
				c1.559-13.77,12.429-24.646,26.208-26.207V104.995z M104.031,111.6v26.208c-13.779-1.562-24.65-12.432-26.208-26.208H104.031z
				 M143.635,147.902c-1.824,0-3.298-1.48-3.298-3.298c0-1.824,1.474-3.304,3.298-3.304s3.301,1.48,3.301,3.304
				C146.936,146.422,145.459,147.902,143.635,147.902z M148.35,135.953c-1.441-0.81-3.066-1.238-4.715-1.25
				c-5.467,0-9.901,4.434-9.901,9.901c0.012,1.649,0.441,3.274,1.251,4.712c-7.249,4.875-15.646,7.75-24.354,8.354v-13.235
				c17.425-1.61,31.225-15.414,32.835-32.835h13.236C156.097,120.311,153.215,128.71,148.35,135.953L148.35,135.953z
				 M156.668,104.995h-13.203c-0.716-7.808-3.962-15.176-9.239-20.983l8.986-9.708C151.146,82.651,155.907,93.507,156.668,104.995z
				 M138.379,69.795l-8.989,9.739c-5.424-4.189-11.934-6.747-18.76-7.374V58.958C120.776,59.616,130.472,63.405,138.379,69.795z
				 M71.025,68.699c1.825,0,3.301,1.472,3.301,3.298c0,1.818-1.477,3.298-3.301,3.298c-1.823,0-3.3-1.479-3.3-3.298
				C67.725,70.171,69.202,68.699,71.025,68.699z M66.327,80.656c1.436,0.804,3.055,1.229,4.698,1.242
				c5.469,0,9.903-4.432,9.903-9.901c-0.011-1.649-0.439-3.269-1.243-4.704c7.222-4.916,15.629-7.801,24.346-8.365V72.16
				c-17.425,1.617-31.225,15.415-32.836,32.835H57.958C58.519,96.286,61.411,87.875,66.327,80.656z"/>
		</g>
	</g>
</g>
</svg>
