<?xml version="1.0" encoding="utf-8"?>
<!-- Generator: Adobe Illustrator 16.0.0, SVG Export Plug-In . SVG Version: 6.00 Build 0)  -->
<!DOCTYPE svg PUBLIC "-//W3C//DTD SVG 1.1//EN" "http://www.w3.org/Graphics/SVG/1.1/DTD/svg11.dtd">
<svg version="1.1" id="Layer_5" xmlns="http://www.w3.org/2000/svg" xmlns:xlink="http://www.w3.org/1999/xlink" x="0px" y="0px"
	 width="512px" height="512px" viewBox="0 0 512 512" enable-background="new 0 0 512 512" xml:space="preserve">
<path fill="#FFFFFF" d="M344,472h-16v-16h16V472z M216,456h-16v16h16V456z M312,456h-16v16h16V456z M136,472h16v-16h-16V472z
	 M248,456h-16v16h16V456z M168,472h16v-16h-16V472z M376,456h-16v16h16V456z M280,456h-16v16h16V456z M136,440h16v-16h-16V440z
	 M376,424h-16v16h16V424z M280,424h-16v16h16V424z M248,424h-16v16h16V424z M216,424h-16v16h16V424z M312,424h-16v16h16V424z
	 M344,424h-16v16h16V424z M280,392h-16v16h16V392z M376,392h-16v16h16V392z M344,392h-16v16h16V392z M312,392h-16v16h16V392z
	 M272,80c0-13.232,10.768-24,24-24s24,10.768,24,24s-10.768,24-24,24S272,93.232,272,80z M288,80c0,4.408,3.592,8,8,8s8-3.592,8-8
	s-3.592-8-8-8S288,75.592,288,80z M192,80c0-13.232,10.768-24,24-24s24,10.768,24,24s-10.768,24-24,24S192,93.232,192,80z M208,80
	c0,4.408,3.592,8,8,8s8-3.592,8-8s-3.592-8-8-8S208,75.592,208,80z M287.784,136L224,135.784V120h-16v15.784
	c0,8.936,7.28,16.216,16.216,16.216h63.56c8.945,0,16.225-7.28,16.225-16.216V120h-16L287.784,136z M184,224
	c0-13.232,10.768-24,24-24h96c13.232,0,24,10.768,24,24v32c0,13.232-10.768,24-24,24h-96c-13.232,0-24-10.768-24-24V224z M200,256
	c0,4.408,3.592,8,8,8h96c4.408,0,8-3.592,8-8v-32c0-4.408-3.592-8-8-8h-96c-4.408,0-8,3.592-8,8V256z M296,312h16v-16h-16V312z
	 M232,312h16v-16h-16V312z M264,312h16v-16h-16V312z M200,312h16v-16h-16V312z M345.44,328H504v16H171.336
	c3.8,5.84,7.32,10.264,9.976,12.032c1.672,1.112,3.096,2.512,4.424,3.976c5.984-1.392,12.176-1.392,18.16-0.008H416v144H96V360
	h31.176c-3.184-5.057-6.376-10.448-9.448-16H8v-16h101.56C101.712,311.305,96,294.191,96,280c0-24.744,12.68-47.56,24.088-63.16
	C120.08,216.56,120,216.288,120,216c0-22.056,17.944-40,40-40c4.208,0,8.352,0.768,12.392,2.144l2.464-3.288
	C165.872,167.512,160,156.488,160,144v-8h-8c-13.232,0-24-10.768-24-24V80c0-13.232,10.768-24,24-24h8v-8c0-22.056,17.944-40,40-40
	h112c22.056,0,40,17.944,40,40v8h8c13.232,0,24,10.768,24,24v32c0,13.232-10.768,24-24,24h-8v8c0,12.488-5.872,23.512-14.856,30.856
	l2.465,3.288c4.04-1.376,8.184-2.144,12.392-2.144c13.048,0,24.552,6.376,31.855,16.072c0.345-0.008,0.696-0.072,1.041-0.072
	c21.56,0,39.104-17.544,39.104-39.104V119.8c-9.656-7.312-16-18.784-16-31.792v-1.296l8.408-25.232l15.176,5.064l-7.56,22.672
	C424.664,101.88,435.168,112,448,112s23.336-10.12,23.968-22.792l-7.56-22.672l15.176-5.064L488,86.704V88
	c0,13.016-6.344,24.488-16,31.792V152c0,48.52-39.48,88-88,88c-0.064,0-0.12-0.024-0.184-0.024
	c-6.248,8.264-15.561,13.96-26.28,15.464L345.44,328z M352,72v48h8c4.408,0,8-3.592,8-8V80c0-4.408-3.592-8-8-8H352z M160,120V72h-8
	c-4.408,0-8,3.592-8,8v32c0,4.408,3.592,8,8,8H160z M391.088,207.632c0.576,2.704,0.912,5.496,0.912,8.368
	c0,2.616-0.288,5.16-0.768,7.632C427.544,219.992,456,189.256,456,152v-24.808c-2.584,0.528-5.264,0.808-8,0.808
	s-5.416-0.28-8-0.808v25.704C440,181.184,418.568,204.536,391.088,207.632L391.088,207.632z M352,192
	c-0.936,0-1.856,0.248-2.784,0.368C356.184,204.944,360,219.224,360,233.64c0,1.672-0.112,3.352-0.208,5.024
	C369.088,235.464,376,226.576,376,216C376,202.768,365.232,192,352,192z M232,24l12,16h24l12-16H232z M176,144
	c0,13.232,10.768,24,24,24h112c13.232,0,24-10.768,24-24V48c0-13.232-10.768-24-24-24h-12l-24,32h-40l-24-32h-12
	c-13.232,0-24,10.768-24,24V144z M200,184h-12l-6.152,8.208l-3.608,5.352c-6.624,10.8-10.24,23.384-10.24,36.08
	c0,3.776,0.32,7.584,0.936,11.328L182.776,328h146.448l13.841-83.04c0.615-3.736,0.936-7.544,0.936-11.32
	c0-14.632-4.792-29.12-13.472-40.896l-0.04-0.056c-0.097-0.128-0.176-0.264-0.265-0.392L324,184h-12H200z M136,216
	c0,10.488,6.808,19.336,16.208,22.592c-0.096-1.656-0.208-3.304-0.208-4.952c0-14.408,3.816-28.696,10.792-41.272
	c-0.936-0.12-1.856-0.368-2.792-0.368C146.768,192,136,202.768,136,216z M177.856,381.855c-9.072,9.072-9.344,23.664-0.832,33.072
	l21.384,10.688l-7.16,14.312l-23.792-11.896l-0.92-0.92c-8.472-8.472-12.176-19.808-11.44-30.921
	c-0.136-0.088-0.288-0.144-0.424-0.239c-0.656-0.44-1.6-1.312-2.672-2.408V408h-16v-16h14.544c-3.232-3.536-7.632-9.04-12.616-16
	H112v112h288V376H226.304l8,16H248v16h-16v-10.784l-10.384,5.192l-10.688-21.385C201.52,372.512,186.928,372.784,177.856,381.855
	L177.856,381.855z M170.224,367.544C154.448,353.736,128,299.712,128,280c0-9.368,3.304-19.784,9.512-30.952
	c-4.688-3.2-8.56-7.424-11.528-12.272C118.488,249.16,112,264.336,112,280c0,31.536,35.68,83.712,48.304,98.943
	c1.712-2.983,3.688-5.855,6.24-8.399C167.688,369.4,168.976,368.52,170.224,367.544z M162.056,328h4.496l-12.096-72.56
	c-0.68-0.096-1.4-0.08-2.072-0.208C146.992,264.536,144,273.057,144,280C144,288.775,152.616,310.048,162.056,328z"/>
</svg>
